<svg width="12" height="12" viewBox="0 0 12 12" fill="none" xmlns="http://www.w3.org/2000/svg">
<path fill-rule="evenodd" clip-rule="evenodd" d="M9.81095 9.81208C10.0697 9.54818 10.0617 9.10875 9.79343 8.84124L6.91684 5.97341L9.76992 3.12898C10.0257 2.87403 10.0322 2.47057 9.78467 2.21812C9.52644 1.95473 9.0923 1.95688 8.82551 2.22287L5.99021 5.04959L3.12603 2.19412C2.86884 1.93772 2.46717 1.93497 2.21918 2.18792C1.96046 2.45181 1.96839 2.89122 2.2367 3.15872L5.06177 5.97522L2.19616 8.83216C1.94045 9.0871 1.93392 9.49054 2.18142 9.74299C2.43964 10.0064 2.87377 10.0042 3.14055 9.73824L5.98839 6.89904L8.90407 9.80587C9.16126 10.0623 9.56295 10.065 9.81095 9.81208Z" fill="currentColor"/>
</svg>
