<svg width="44" height="56" viewBox="0 0 44 56" fill="none" xmlns="http://www.w3.org/2000/svg">
<path d="M44 52.1364C44 53.7588 42.17 54.7061 40.8453 53.7694L23.1547 41.2609C22.4626 40.7716 21.5374 40.7716 20.8453 41.2609L3.15466 53.7694C1.82999 54.7061 0 53.7588 0 52.1364V6.22222C0 4.57199 0.662243 2.98934 1.84104 1.82245C3.01984 0.655553 4.61864 0 6.28571 0H37.7143C39.3814 0 40.9802 0.655553 42.159 1.82245C43.3378 2.98934 44 4.57199 44 6.22222V52.1364Z" fill="#F80032"/>
<path d="M14.5 15H16.1667H29.5" stroke="white" stroke-width="1.66667" stroke-linecap="round" stroke-linejoin="round"/>
<path d="M27.8327 15V26.6667C27.8327 27.1087 27.6571 27.5326 27.3445 27.8452C27.032 28.1577 26.608 28.3333 26.166 28.3333H17.8327C17.3907 28.3333 16.9667 28.1577 16.6542 27.8452C16.3416 27.5326 16.166 27.1087 16.166 26.6667V15M18.666 15V13.3333C18.666 12.8913 18.8416 12.4674 19.1542 12.1548C19.4667 11.8423 19.8907 11.6667 20.3327 11.6667H23.666C24.108 11.6667 24.532 11.8423 24.8445 12.1548C25.1571 12.4674 25.3327 12.8913 25.3327 13.3333V15" stroke="white" stroke-width="1.66667" stroke-linecap="round" stroke-linejoin="round"/>
<path d="M20.334 19.1667V24.1667" stroke="white" stroke-width="1.66667" stroke-linecap="round" stroke-linejoin="round"/>
<path d="M23.666 19.1667V24.1667" stroke="white" stroke-width="1.66667" stroke-linecap="round" stroke-linejoin="round"/>
</svg>
